<?xml version="1.0" encoding="utf-8"?>
<!-- Generator: Adobe Illustrator 23.0.1, SVG Export Plug-In . SVG Version: 6.00 Build 0)  -->
<svg version="1.1" id="Layer_1" xmlns="http://www.w3.org/2000/svg" xmlns:xlink="http://www.w3.org/1999/xlink" x="0px" y="0px"
	 viewBox="0 0 129 36.9" style="enable-background:new 0 0 129 36.9;" xml:space="preserve">
<style type="text/css">
	.st0{fill:#8402FE;}
	.st1{fill:#82EDE3;}
</style>
<title>Group 3</title>
<desc>Created with Sketch.</desc>
<path class="st0" d="M48.7,17.2c0-1,0.1-2,0.4-2.9c0.3-0.9,0.6-1.8,1.1-2.6c0.5-0.8,1.1-1.6,1.7-2.2c0.7-0.7,1.4-1.2,2.2-1.7
	c0.8-0.5,1.7-0.8,2.6-1.1c0.9-0.3,1.9-0.4,2.9-0.4c1,0,2,0.1,2.9,0.4c0.9,0.3,1.8,0.6,2.6,1.1c0.8,0.5,1.5,1,2.2,1.7
	c0.7,0.7,1.2,1.4,1.7,2.2c0.5,0.8,0.8,1.7,1.1,2.6c0.3,0.9,0.4,1.9,0.4,2.9s-0.1,2-0.4,2.9c-0.3,0.9-0.6,1.8-1.1,2.6
	c-0.5,0.8-1.1,1.5-1.7,2.2c-0.7,0.7-1.4,1.2-2.2,1.7c-0.8,0.5-1.7,0.8-2.6,1.1c-0.9,0.3-1.9,0.4-2.9,0.4c-1,0-2-0.1-2.9-0.4
	c-0.9-0.3-1.8-0.6-2.6-1.1c-0.8-0.5-1.6-1-2.2-1.7c-0.7-0.7-1.2-1.4-1.7-2.2c-0.5-0.8-0.8-1.7-1.1-2.6
	C48.9,19.2,48.7,18.2,48.7,17.2z M53.4,17.2c0,0.9,0.2,1.7,0.5,2.5c0.3,0.8,0.7,1.5,1.3,2.1c0.6,0.6,1.2,1.1,2,1.4
	c0.8,0.3,1.6,0.5,2.5,0.5c0.9,0,1.7-0.2,2.4-0.5c0.8-0.3,1.4-0.8,1.9-1.4c0.5-0.6,1-1.3,1.3-2.1c0.3-0.8,0.5-1.6,0.5-2.5
	c0-0.9-0.2-1.7-0.5-2.5c-0.3-0.8-0.7-1.5-1.3-2.1c-0.5-0.6-1.2-1.1-1.9-1.5c-0.8-0.4-1.6-0.5-2.4-0.5c-0.9,0-1.7,0.2-2.5,0.5
	c-0.8,0.4-1.4,0.8-2,1.5c-0.6,0.6-1,1.3-1.3,2.1S53.4,16.3,53.4,17.2z"/>
<path class="st0" d="M53.5,17.2h-4.8c0,0,0,0,0,0c0,0.9-0.2,1.7-0.5,2.5c-0.3,0.8-0.7,1.5-1.3,2.1c-0.5,0.6-1.2,1.1-1.9,1.4
	c-0.8,0.3-1.6,0.5-2.4,0.5c-0.9,0-1.7-0.2-2.5-0.5c-0.8-0.3-1.4-0.8-2-1.4c-0.6-0.6-1-1.3-1.3-2.1c-0.2-0.6-0.4-1.2-0.4-1.8
	c0-0.1,0.1-0.2,0.1-0.3V1c0-0.3-0.1-0.5-0.3-0.7C35.9,0.1,35.7,0,35.4,0h-2.9c-0.3,0-0.6,0.1-0.7,0.3c-0.2,0.2-0.2,0.4-0.2,0.7v16.2
	h0c0,0,0,0,0,0c0,0.1,0,0.2,0,0.3v0.1c0,0,0,0,0,0c0,0.9,0.2,1.7,0.4,2.5c0.3,0.9,0.6,1.8,1.1,2.6c0.5,0.8,1.1,1.5,1.7,2.2
	s1.4,1.2,2.2,1.7c0.8,0.5,1.7,0.8,2.6,1.1c0.9,0.3,1.9,0.4,2.9,0.4c1,0,2-0.1,2.9-0.4c0.9-0.3,1.8-0.6,2.6-1.1
	c0.8-0.5,1.5-1,2.2-1.7c0.7-0.7,1.2-1.4,1.7-2.2c0.5-0.8,0.8-1.7,1.1-2.6C53.3,19.2,53.5,18.2,53.5,17.2
	C53.5,17.2,53.5,17.2,53.5,17.2z"/>
<path class="st0" d="M94.5,17.2h-4.7c0,0,0,0,0,0c0,0.9-0.2,1.7-0.5,2.5c-0.3,0.8-0.7,1.5-1.3,2.1c-0.6,0.6-1.2,1.1-2,1.4
	c-0.8,0.3-1.6,0.5-2.5,0.5c-0.9,0-1.7-0.2-2.4-0.5c-0.8-0.3-1.4-0.8-1.9-1.4c-0.5-0.6-1-1.3-1.3-2.1c-0.3-0.8-0.5-1.6-0.5-2.5
	c0,0,0,0,0,0h0V6.6c0-0.3-0.1-0.5-0.3-0.7c-0.2-0.2-0.4-0.3-0.6-0.3h-2.9c-0.3,0-0.6,0.1-0.7,0.3c-0.2,0.2-0.2,0.4-0.2,0.7v10.6
	c0,0,0,0,0,0c0,0,0,0,0,0v0l0,0c0,1,0.1,2,0.4,2.9c0.3,0.9,0.6,1.8,1.1,2.6c0.3,0.5,0.6,1,1,1.4l0,0h0c0.2,0.3,0.4,0.5,0.7,0.8
	c0.7,0.7,1.4,1.2,2.2,1.7c0.8,0.5,1.7,0.8,2.6,1.1c0.9,0.3,1.9,0.4,2.9,0.4c1,0,2-0.1,2.9-0.4c0.9-0.3,1.8-0.6,2.6-1.1
	c0.8-0.5,1.6-1,2.2-1.7s1.2-1.4,1.7-2.2c0.5-0.8,0.8-1.7,1.1-2.6C94.3,19.2,94.5,18.2,94.5,17.2C94.5,17.2,94.5,17.2,94.5,17.2z"/>
<path class="st0" d="M25,3c0.2,0,0.3,0,0.4,0.1c0.1,0.1,0.2,0.1,0.3,0.3c0.1,0.1,0.1,0.2,0.1,0.4l0,3.2c0,0.3-0.1,0.5-0.3,0.6
	c-0.1,0-0.1,0.1-0.2,0.1c-0.1,0-0.2,0-0.3,0c-0.9-0.1-1.7,0-2.5,0.1C21.6,8,20.8,8.3,20,8.7c-1,0.6-1.8,1.3-2.4,2.1
	c-0.6,0.8-1,1.8-1.3,2.7c-0.2,1-0.3,2-0.1,3c0.2,1.1,0.5,2.1,1.1,3.1c0.6,1,1.3,1.8,2.1,2.5c0.8,0.7,1.7,1.1,2.7,1.4
	c1,0.3,2,0.4,3,0.3c1-0.1,2-0.4,3-1c0.8-0.5,1.5-1,2-1.6c0.6-0.6,1-1.4,1.4-2.1c0-0.1,0.1-0.2,0.2-0.3c0.1-0.1,0.1-0.1,0.2-0.2
	c0.2-0.1,0.4-0.1,0.7,0l2.8,1.6c0.1,0.1,0.2,0.2,0.3,0.3c0.1,0.1,0.1,0.3,0.1,0.4c0,0.1-0.1,0.3-0.1,0.4c-0.6,1.1-1.3,2.2-2.1,3.1
	c-0.9,0.9-1.9,1.7-3,2.4c-1,0.6-2.1,1-3.2,1.3c-1.1,0.3-2.2,0.4-3.3,0.4c-1.1,0-2.2-0.2-3.2-0.4c-1.1-0.3-2.1-0.7-3-1.2
	c-1-0.5-1.8-1.2-2.6-2c-0.8-0.8-1.5-1.7-2.1-2.7c-0.6-1-1-2.1-1.3-3.2c-0.3-1.1-0.4-2.2-0.4-3.3c0-1.1,0.2-2.2,0.4-3.2
	c0.3-1.1,0.7-2.1,1.2-3c0.5-0.9,1.2-1.8,2-2.6c0.8-0.8,1.7-1.5,2.7-2.1c1.1-0.7,2.3-1.1,3.5-1.4C22.5,3.1,23.7,3,25,3z"/>
<path class="st0" d="M117.7,21.5c-0.9,0-1.7-0.2-2.4-0.5c-0.8-0.3-1.4-0.8-1.9-1.4c-0.5-0.6-1-1.3-1.3-2.1c-0.1-0.4-0.3-0.8-0.3-1.2
	c0-0.3-0.1-0.6-0.1-0.9c0-0.1,0-0.3,0-0.5c0,0,0,0,0,0h0V1.1c0-0.3-0.1-0.5-0.3-0.7c-0.2-0.2-0.4-0.3-0.6-0.3h-2.9
	c-0.3,0-0.6,0.1-0.7,0.3c-0.2,0.2-0.2,0.4-0.2,0.7v7c-0.2-0.1-0.3-0.2-0.5-0.3c-0.8-0.5-1.7-0.8-2.6-1.1c-0.9-0.3-1.9-0.4-2.9-0.4
	c-1,0-2,0.1-2.9,0.4c-0.9,0.3-1.8,0.6-2.6,1.1c-0.8,0.5-1.6,1-2.2,1.7c-0.7,0.7-1.2,1.4-1.7,2.2c-0.5,0.8-0.8,1.7-1.1,2.6
	c-0.3,0.9-0.4,1.9-0.4,2.9s0.1,2,0.4,2.9c0.3,0.9,0.6,1.8,1.1,2.6c0.5,0.8,1.1,1.5,1.7,2.2c0.7,0.7,1.4,1.2,2.2,1.7
	c0.8,0.5,1.7,0.8,2.6,1.1c0.9,0.3,1.9,0.4,2.9,0.4c1,0,2-0.1,2.9-0.4c0.9-0.3,1.8-0.6,2.6-1.1c0.8-0.5,1.5-1,2.2-1.7
	c0.6-0.6,1.2-1.3,1.6-2.1c0.6,0.6,1.3,1.1,2.1,1.6c0.8,0.5,1.7,0.8,2.6,1.1c0.9,0.3,1.9,0.4,2.9,0.4c0,0,0,0,0,0L117.7,21.5
	C117.7,21.5,117.7,21.5,117.7,21.5z M106.4,19.7c-0.3,0.8-0.7,1.5-1.3,2.1c-0.5,0.6-1.2,1.1-1.9,1.4c-0.8,0.3-1.6,0.5-2.4,0.5
	c-0.9,0-1.7-0.2-2.5-0.5c-0.8-0.3-1.4-0.8-2-1.4c-0.6-0.6-1-1.3-1.3-2.1c-0.3-0.8-0.5-1.6-0.5-2.5c0-0.9,0.2-1.7,0.5-2.5
	c0.3-0.8,0.7-1.5,1.3-2.1c0.6-0.6,1.2-1.1,2-1.5c0.8-0.4,1.6-0.5,2.5-0.5c0.9,0,1.7,0.2,2.4,0.5c0.8,0.4,1.4,0.8,1.9,1.5
	c0.5,0.6,1,1.3,1.3,2.1c0.2,0.5,0.3,1.1,0.4,1.6c0,0.1,0,0.2,0,0.3c0,0.2,0,0.4,0,0.6C106.9,18.1,106.7,18.9,106.4,19.7z"/>
<path class="st0" d="M128.8,15.1c-0.1-0.1-0.3-0.2-0.6-0.2H125c-0.3,0-0.5,0.1-0.6,0.2s-0.3,0.3-0.4,0.5l-0.7,2
	c-0.3,0.8-0.7,1.4-1.3,2c-0.6,0.6-1.2,1.1-2,1.4c-0.8,0.3-1.6,0.5-2.5,0.5c-0.9,0-1.7-0.2-2.4-0.5c-0.8-0.3-1.4-0.8-1.9-1.4
	c-0.5-0.6-1-1.3-1.3-2.1c-0.2-0.5-0.3-1-0.4-1.6c0-0.3,0,0,0,0c0-0.3-0.1-0.6-0.3-0.7c-0.2-0.2-0.4-0.3-0.6-0.3h-2.9
	c-0.3,0-0.6,0.1-0.7,0.3c-0.2,0.2-0.2,0.4-0.2,0.7l0,0c0,0.7,0.1,1.3,0.3,2c0.3,0.9,0.6,1.8,1.1,2.6c0.3,0.5,0.6,1,1,1.4l0,0h0
	c0.2,0.3,0.4,0.5,0.7,0.8c0.7,0.7,1.4,1.2,2.2,1.7c0.8,0.5,1.7,0.8,2.6,1.1c0.9,0.3,1.9,0.4,2.9,0.4c1,0,2-0.1,2.9-0.4
	c0.1,0,0.2-0.1,0.3-0.1l-3.3,10.3c0,0,0,0.1-0.1,0.3c0,0.1,0,0.3,0,0.3c0,0.2,0.1,0.3,0.2,0.4c0.1,0.1,0.3,0.2,0.6,0.2h3.1
	c0.3,0,0.5-0.1,0.6-0.2c0.2-0.1,0.3-0.3,0.4-0.5l6.5-20.1c0,0,0-0.1,0.1-0.3c0-0.1,0-0.3,0-0.3C129,15.3,128.9,15.2,128.8,15.1z"/>
<path class="st1" d="M8.4,0C8.3,0.9,8.1,1.7,7.7,2.6c-0.4,1-1,1.8-1.8,2.6C5.1,6,4.2,6.6,3.2,7.1c-1,0.4-2,0.7-3,0.7
	c-0.1,0-0.2,0-0.2,0v4.7c0.1,0,0.2,0,0.3,0c1.1,0,2.2-0.1,3.2-0.4c1.1-0.3,2.1-0.7,3.1-1.2c1-0.6,1.9-1.2,2.7-2.1
	C10.2,7.9,10.9,7,11.5,6c0.6-1,1-2,1.2-3.1C13,2,13.1,1,13.1,0H8.4z"/>
</svg>
