<?xml version="1.0" encoding="UTF-8"?>
<svg width="129px" height="21px" viewBox="0 0 129 21" version="1.1" xmlns="http://www.w3.org/2000/svg" xmlns:xlink="http://www.w3.org/1999/xlink">
    <!-- Generator: Sketch 51.3 (57544) - http://www.bohemiancoding.com/sketch -->
    <title>Group 3</title>
    <desc>Created with Sketch.</desc>
    <defs></defs>
    <g id="Page-1" stroke="none" stroke-width="1" fill="none" fill-rule="evenodd">
        <g id="Artboard-2-Copy" transform="translate(-62.000000, -62.000000)">
            <g id="Group-3" transform="translate(62.000000, 62.000000)">
                <g id="Group-2">
                    <g id="Group" transform="translate(0.000000, 0.238400)">
                        <g id="arrow-marchetti-designcopy4">
                            <path d="M13.5499498,19.9081848 C12.5671132,19.7672389 11.6575473,19.067543 11.2836146,18.161462 C11.1269671,17.7839283 11.0991748,17.627881 11.1017014,17.1043675 C11.1017014,16.6915973 11.1092811,16.5984723 11.157286,16.4273237 C11.2229768,16.188219 11.3543586,15.8811582 11.4705809,15.6923913 C11.6247018,15.4331515 11.4099432,15.6823238 15.0734728,11.5596553 L16.4454015,10.0168008 L16.3493918,9.90857441 C16.2963338,9.8506859 15.2452797,8.74325359 14.0123125,7.4495713 C12.7793453,6.15588901 11.6929193,4.99811887 11.5969095,4.87730807 C11.1648657,4.3286257 10.9602133,3.7572913 10.9602133,3.0978657 C10.9602133,2.32266308 11.2431894,1.65065302 11.8040884,1.09693686 C12.1931806,0.709335556 12.6378573,0.457646394 13.1785437,0.314183572 C13.5171044,0.223575474 14.1032691,0.200923449 14.4645689,0.266362631 C14.9244051,0.349420055 15.3716084,0.540703817 15.7354348,0.81001122 C15.8390242,0.88803486 16.2483289,1.27815306 16.6450007,1.67833883 C17.0416726,2.07852459 18.0876734,3.13058529 18.9694471,4.01653114 C23.0523878,8.11403069 23.2039821,8.26756108 23.3202044,8.44626038 C23.653712,8.95467249 23.7952,9.41778055 23.7952,9.99414873 C23.7952,10.6284054 23.5956008,11.2072905 23.2065087,11.6930506 C23.1180787,11.8037938 22.324735,12.6419187 21.4429613,13.5555504 C20.5611876,14.469182 19.0452443,16.0447562 18.072514,17.0540297 C17.0997837,18.0658201 16.2306429,18.9643504 16.1396863,19.0524417 C15.6722704,19.5054821 15.1240043,19.7898909 14.5125738,19.8981172 C14.2725495,19.9383875 13.8000805,19.9434213 13.5499498,19.9081848 Z" id="Shape-Copy-2" fill="#5BFCB5"></path>
                            <path d="M2.58973648,19.8820362 C1.60689991,19.7410903 0.697333921,19.0413944 0.323401239,18.1353134 C0.166753764,17.7577797 0.13896147,17.6017324 0.141488042,17.078219 C0.141488042,16.6654487 0.149067759,16.5723238 0.19707263,16.4011751 C0.262763507,16.1620704 0.39414526,15.8550096 0.51036758,15.6662428 C0.664488483,15.4070029 0.449729848,15.6561752 4.11325951,11.5335067 L5.4851882,9.99065218 L5.38917846,9.88242584 C5.33612044,9.82453733 4.28506641,8.71710502 3.05209919,7.42342273 C1.81913197,6.12974044 0.732705932,4.9719703 0.636696189,4.8511595 C0.204652346,4.30247713 0,3.73114273 0,3.07171713 C0,2.29651451 0.282976084,1.62450445 0.843875108,1.07078829 C1.23296722,0.683186984 1.67764393,0.431497823 2.21833037,0.288035 C2.55689104,0.197426902 3.14305579,0.174774878 3.50435561,0.24021406 C3.96419175,0.323271483 4.41139502,0.514555246 4.77522142,0.783862649 C4.87881088,0.861886289 5.28811557,1.25200449 5.6847874,1.65219026 C6.08145923,2.05237602 7.12746012,3.10443672 8.00923381,3.99038257 C12.0921744,8.08788212 12.2437688,8.24141251 12.3599911,8.42011181 C12.6934986,8.92852392 12.8349867,9.39163197 12.8349867,9.96800015 C12.8349867,10.6022568 12.6353875,11.1811419 12.2462953,11.666902 C12.1578653,11.7776452 11.3645217,12.6157701 10.482748,13.5294018 C9.60097428,14.4430334 8.08503097,16.0186076 7.11230068,17.0278811 C6.13957039,18.0396716 5.27042956,18.9382019 5.17947297,19.0262931 C4.71205711,19.4793336 4.16379095,19.7637423 3.55236048,19.8719687 C3.31233613,19.9122389 2.83986713,19.9172727 2.58973648,19.8820362 Z" id="Shape-Copy" fill="#000000"></path>
                        </g>
                    </g>
                </g>
                <path d="M35.70655,14.0011063 L35.70655,18.9429766 L33,18.9429766 L33,1.15707656 L36.1898625,1.15707656 C37.8734095,1.15707656 39.3072222,1.78537653 40.4913437,3.04199531 C41.6754653,4.2986141 42.2675172,5.81297812 42.2675172,7.58513281 C42.2675172,9.36534276 41.6754653,10.8837343 40.4913437,12.1403531 C39.3072222,13.3969719 37.8734095,14.0252719 36.1898625,14.0252719 C36.0287575,14.0252719 35.867655,14.0172167 35.70655,14.0011063 Z M35.70655,3.8032125 L35.70655,11.3428875 C35.8595997,11.3670532 36.0207023,11.3791359 36.1898625,11.3791359 C37.1806581,11.3791359 38.0244327,11.0086001 38.7212117,10.2675172 C39.4179907,9.52643432 39.766375,8.63231513 39.766375,7.58513281 C39.766375,6.53795049 39.4179907,5.64584509 38.7212117,4.90878984 C38.0244327,4.1717346 37.1806581,3.8032125 36.1898625,3.8032125 L35.70655,3.8032125 Z M46.9017935,14.0011063 L46.9017935,18.9429766 L44.1952435,18.9429766 L44.1952435,1.15707656 L46.9017935,1.15707656 L46.9017935,1.16915938 C47.0628985,1.16110413 47.224001,1.15707656 47.385106,1.15707656 C49.068653,1.15707656 50.5024657,1.78537653 51.6865872,3.04199531 C52.8707088,4.2986141 53.4627607,5.81297812 53.4627607,7.58513281 C53.4627607,9.36534276 52.8707088,10.8837343 51.6865872,12.1403531 C51.388543,12.4545078 51.0784206,12.7283822 50.7562107,12.9619844 L53.9823216,18.9913078 L51.0824466,18.9913078 L48.4000622,13.9406922 C48.0697971,13.9970789 47.7314817,14.0252719 47.385106,14.0252719 C47.224001,14.0252719 47.0628985,14.0172167 46.9017935,14.0011063 Z M46.9017935,3.82737812 L46.9017935,11.3428875 C47.0548432,11.3670532 47.2159458,11.3791359 47.385106,11.3791359 C48.3759016,11.3791359 49.2196762,11.0086001 49.9164552,10.2675172 C50.6132342,9.52643432 50.9616185,8.63231513 50.9616185,7.58513281 C50.9616185,6.53795049 50.6132342,5.64584509 49.9164552,4.90878984 C49.2196762,4.1717346 48.3759016,3.8032125 47.385106,3.8032125 C47.224001,3.8032125 47.0628985,3.81126763 46.9017935,3.82737812 Z M74.1913432,10.0258609 C74.1913432,11.2663692 73.9517032,12.4283214 73.4724159,13.5117523 C72.9931286,14.5951833 72.3386495,15.539647 71.5089589,16.3451719 C70.6792683,17.1506967 69.7126529,17.7890656 68.6090839,18.2602977 C67.5055148,18.7315297 66.321411,18.9671422 65.056737,18.9671422 C63.7840077,18.9671422 62.5958764,18.7315297 61.4923073,18.2602977 C60.3887382,17.7890656 59.4221229,17.1506967 58.5924323,16.3451719 C57.7627417,15.539647 57.1082626,14.5951833 56.6289753,13.5117523 C56.149688,12.4283214 55.9100479,11.2663692 55.9100479,10.0258609 C55.9100479,8.7934079 56.149688,7.62742815 56.6289753,6.52788672 C57.1082626,5.42834528 57.7627417,4.47582642 58.5924323,3.67030156 C59.4221229,2.8647767 60.3887382,2.22842161 61.4923073,1.76121719 C62.5958764,1.29401277 63.7840077,1.06041406 65.056737,1.06041406 C66.321411,1.06041406 67.5055148,1.29401277 68.6090839,1.76121719 C69.7126529,2.22842161 70.6792683,2.8647767 71.5089589,3.67030156 C72.3386495,4.47582642 72.9931286,5.42834528 73.4724159,6.52788672 C73.9517032,7.62742815 74.1913432,8.7934079 74.1913432,10.0258609 Z M58.8340886,10.0258609 C58.8340886,10.8877725 58.9951911,11.6952991 59.3174011,12.4484648 C59.639611,13.2016306 60.082643,13.8581235 60.6465104,14.4179633 C61.2103778,14.9778031 61.8708983,15.4168075 62.6280917,15.7349898 C63.385285,16.0531722 64.1948254,16.2122609 65.056737,16.2122609 C65.9105933,16.2122609 66.7161061,16.0531722 67.4732995,15.7349898 C68.2304929,15.4168075 68.8889996,14.9778031 69.4488393,14.4179633 C70.0086791,13.8581235 70.4496974,13.2016306 70.7719073,12.4484648 C71.0941172,11.6952991 71.2552198,10.8877725 71.2552198,10.0258609 C71.2552198,9.16394934 71.0941172,8.35642278 70.7719073,7.60325703 C70.4496974,6.85009129 70.0086791,6.19359837 69.4488393,5.63375859 C68.8889996,5.07391882 68.2304929,4.63692813 67.4732995,4.32277344 C66.7161061,4.00861874 65.9105933,3.85154375 65.056737,3.85154375 C64.1948254,3.85154375 63.385285,4.00861874 62.6280917,4.32277344 C61.8708983,4.63692813 61.2103778,5.07391882 60.6465104,5.63375859 C60.082643,6.19359837 59.639611,6.85009129 59.3174011,7.60325703 C58.9951911,8.35642278 58.8340886,9.16394934 58.8340886,10.0258609 Z M86.3114396,6.92057813 L87.7251287,6.92057813 C88.1117806,6.92057813 88.4400271,6.77357204 88.7098779,6.47955547 C88.9797287,6.18553889 89.1146521,5.82507193 89.1146521,5.39814375 C89.1146521,4.97927082 88.9797287,4.62283142 88.7098779,4.32881484 C88.4400271,4.03479827 88.1117806,3.88779219 87.7251287,3.88779219 L86.3114396,3.88779219 L86.3114396,6.92057813 Z M83.6048896,18.9671422 L83.6048896,1.18124219 L87.7251287,1.18124219 C88.8609187,1.18124219 89.8275341,1.57997101 90.6250037,2.37744063 C91.4224733,3.17491024 91.8212021,4.13749801 91.8212021,5.26523281 C91.8212021,6.37685712 91.4385835,7.3273622 90.6733349,8.11677656 C91.4949703,8.37454452 92.2400696,8.8336868 92.9086552,9.49421719 C93.9880585,10.5816757 94.5277521,11.890634 94.5277521,13.4211313 C94.5277521,14.9516285 93.9860448,16.258573 92.9026138,17.3420039 C91.8191829,18.4254348 90.5122384,18.9671422 88.9817412,18.9671422 L83.6048896,18.9671422 Z M86.3114396,10.2312687 L86.3114396,16.2605922 L88.9817412,16.2605922 C89.7631003,16.2605922 90.4316759,15.9645662 90.987488,15.3725055 C91.5433002,14.7804447 91.8212021,14.0695797 91.8212021,13.2398891 C91.8212021,12.4182537 91.5433002,11.7114162 90.987488,11.1193555 C90.4316759,10.5272947 89.7631003,10.2312687 88.9817412,10.2312687 L86.3114396,10.2312687 Z M102.170649,1 L107.027939,19.0275563 L104.260975,19.0275563 L103.499758,16.1760125 L99.1982768,16.1760125 L98.4370597,19.0275563 L95.6700956,19.0275563 L100.527386,1 L102.170649,1 Z M99.9715768,13.3123859 L102.726458,13.3123859 L101.3611,7.54888438 L99.9715768,13.3123859 Z M112.906745,18.9913078 C112.133441,18.9913078 111.450769,18.8946463 110.858709,18.7013203 C110.266648,18.5079943 109.632307,18.1616239 108.955666,17.6621984 L108.955666,14.339425 C109.374539,14.7824637 109.696744,15.0825172 109.922291,15.2395945 C110.147838,15.3966719 110.423726,15.5638158 110.749963,15.7410313 C111.076201,15.9182467 111.436668,16.0672666 111.831375,16.1880953 C112.226082,16.308924 112.616756,16.3693375 113.003408,16.3693375 C113.800877,16.3693375 114.455357,16.0934494 114.966865,15.5416648 C115.478373,14.9898803 115.734123,14.3354012 115.734123,13.5782078 C115.734123,12.9579537 115.516635,12.4545082 115.081652,12.0678563 C114.646668,11.6812043 113.933789,11.2381723 112.942994,10.7387469 C112.346905,10.4326474 111.84346,10.1547455 111.432642,9.90503281 C111.021825,9.65532011 110.627123,9.34519769 110.248527,8.97465625 C109.86993,8.60411481 109.563835,8.16309657 109.330233,7.65158828 C109.096631,7.14007999 108.979831,6.53795919 108.979831,5.84520781 C109.012052,5.16856693 109.177182,4.53825318 109.475227,3.95424766 C109.773271,3.37024213 110.176027,2.85874152 110.683508,2.41973047 C111.190989,1.98071942 111.768944,1.64039027 112.417391,1.39873281 C113.065839,1.15707535 113.748511,1.03624844 114.465428,1.03624844 C115.00513,1.05235893 115.496493,1.12686887 115.939531,1.25978047 C116.38257,1.39269207 116.886015,1.63233212 117.449883,1.97870781 L117.449883,4.7698375 C117.111562,4.54429054 116.879977,4.40533958 116.755121,4.35298047 C116.630265,4.30062135 116.453052,4.21201495 116.223477,4.08715859 C115.993903,3.96230224 115.728084,3.8555718 115.426012,3.76696406 C115.12394,3.67835633 114.803749,3.63405313 114.465428,3.63405313 C113.708235,3.64210837 113.067852,3.88174843 112.544261,4.35298047 C112.02067,4.82421251 111.758878,5.36994742 111.758878,5.99020156 C111.774989,6.57823471 111.994491,7.0474459 112.417391,7.39784922 C112.840292,7.74825253 113.522964,8.14094001 114.465428,8.57592344 C115.109848,8.88202288 115.635445,9.15186967 116.042235,9.38547188 C116.449025,9.61907408 116.849768,9.92114138 117.244475,10.2916828 C117.639182,10.6622242 117.95736,11.1294217 118.199017,11.6932891 C118.440675,12.2571565 118.569557,12.9257321 118.585667,13.6990359 C118.585667,14.4078978 118.436647,15.0825148 118.138603,15.722907 C117.840559,16.3632993 117.42572,16.929172 116.894073,17.4205422 C116.362427,17.9119124 115.752251,18.2965447 115.063527,18.5744508 C114.374804,18.8523569 113.655883,18.9913078 112.906745,18.9913078 Z M120.513394,1.18124219 L128.753872,1.18124219 L128.753872,3.88779219 L123.232026,3.88779219 L123.232026,8.72091719 L128.753872,8.72091719 L128.753872,11.4274672 L123.232026,11.4274672 L123.232026,16.2605922 L128.753872,16.2605922 L128.753872,18.9671422 L120.513394,18.9671422 L120.513394,1.18124219 Z" id="PRO-BASE" fill="#000000"></path>
            </g>
        </g>
    </g>
</svg>