<?xml version="1.0" encoding="utf-8"?>
<!-- Generator: Adobe Illustrator 23.0.1, SVG Export Plug-In . SVG Version: 6.00 Build 0)  -->
<svg version="1.1" id="Layer_1" xmlns="http://www.w3.org/2000/svg" xmlns:xlink="http://www.w3.org/1999/xlink" x="0px" y="0px"
	 viewBox="0 0 129 21" style="enable-background:new 0 0 129 21;" xml:space="preserve">
<style type="text/css">
	.st0{fill-rule:evenodd;clip-rule:evenodd;fill:#5BFCB5;}
	.st1{fill-rule:evenodd;clip-rule:evenodd;}
</style>
<title>Group 3</title>
<desc>Created with Sketch.</desc>
<g id="Page-1">
	<g id="Artboard-2-Copy" transform="translate(-62.000000, -62.000000)">
		<g id="Group-3" transform="translate(62.000000, 62.000000)">
			<g id="Group-2">
				<g id="Group" transform="translate(0.000000, 0.238400)">
					<g id="arrow-marchetti-designcopy4">
						<path id="Shape-Copy-2" class="st0" d="M13.5,19.9c-1-0.1-1.9-0.8-2.3-1.7c-0.2-0.4-0.2-0.5-0.2-1.1c0-0.4,0-0.5,0.1-0.7
							c0.1-0.2,0.2-0.5,0.3-0.7c0.2-0.3-0.1,0,3.6-4.1l1.4-1.5l-0.1-0.1c-0.1-0.1-1.1-1.2-2.3-2.5S11.7,5,11.6,4.9
							C11.2,4.3,11,3.8,11,3.1c0-0.8,0.3-1.4,0.8-2c0.4-0.4,0.8-0.6,1.4-0.8c0.3-0.1,0.9-0.1,1.3,0c0.5,0.1,0.9,0.3,1.3,0.5
							c0.1,0.1,0.5,0.5,0.9,0.9S18.1,3.1,19,4c4.1,4.1,4.2,4.3,4.4,4.4c0.3,0.5,0.5,1,0.5,1.5c0,0.6-0.2,1.2-0.6,1.7
							c-0.1,0.1-0.9,0.9-1.8,1.9c-0.9,0.9-2.4,2.5-3.4,3.5c-1,1-1.8,1.9-1.9,2c-0.5,0.5-1,0.7-1.6,0.8
							C14.3,19.9,13.8,19.9,13.5,19.9z"/>
						<path id="Shape-Copy" class="st1" d="M2.6,19.9c-1-0.1-1.9-0.8-2.3-1.7c-0.2-0.4-0.2-0.5-0.2-1.1c0-0.4,0-0.5,0.1-0.7
							c0.1-0.2,0.2-0.5,0.3-0.7c0.2-0.3-0.1,0,3.6-4.1L5.5,10L5.4,9.9C5.3,9.8,4.3,8.7,3.1,7.4S0.7,5,0.6,4.9C0.2,4.3,0,3.7,0,3.1
							c0-0.8,0.3-1.4,0.8-2c0.4-0.4,0.8-0.6,1.4-0.8c0.3-0.1,0.9-0.1,1.3,0C4,0.3,4.4,0.5,4.8,0.8c0.1,0.1,0.5,0.5,0.9,0.9
							S7.1,3.1,8,4c4.1,4.1,4.2,4.3,4.4,4.4c0.3,0.5,0.5,1,0.5,1.5c0,0.6-0.2,1.2-0.6,1.7c-0.1,0.1-0.9,0.9-1.8,1.9S8.1,16,7.1,17
							c-1,1-1.8,1.9-1.9,2c-0.5,0.5-1,0.7-1.6,0.8C3.3,19.9,2.8,19.9,2.6,19.9z"/>
					</g>
				</g>
			</g>
			<path id="PRO-BASE" class="st1" d="M35.7,14v4.9H33V1.2h3.2c1.7,0,3.1,0.6,4.3,1.9c1.2,1.3,1.8,2.8,1.8,4.5
				c0,1.8-0.6,3.3-1.8,4.6c-1.2,1.3-2.6,1.9-4.3,1.9C36,14,35.9,14,35.7,14z M35.7,3.8v7.5c0.2,0,0.3,0,0.5,0c1,0,1.8-0.4,2.5-1.1
				c0.7-0.7,1-1.6,1-2.7s-0.3-1.9-1-2.7c-0.7-0.7-1.5-1.1-2.5-1.1H35.7z M46.9,14v4.9h-2.7V1.2h2.7v0c0.2,0,0.3,0,0.5,0
				c1.7,0,3.1,0.6,4.3,1.9c1.2,1.3,1.8,2.8,1.8,4.5c0,1.8-0.6,3.3-1.8,4.6c-0.3,0.3-0.6,0.6-0.9,0.8l3.2,6h-2.9l-2.7-5.1
				c-0.3,0.1-0.7,0.1-1,0.1C47.2,14,47.1,14,46.9,14z M46.9,3.8v7.5c0.2,0,0.3,0,0.5,0c1,0,1.8-0.4,2.5-1.1c0.7-0.7,1-1.6,1-2.7
				s-0.3-1.9-1-2.7c-0.7-0.7-1.5-1.1-2.5-1.1C47.2,3.8,47.1,3.8,46.9,3.8z M74.2,10c0,1.2-0.2,2.4-0.7,3.5c-0.5,1.1-1.1,2-2,2.8
				c-0.8,0.8-1.8,1.4-2.9,1.9S66.3,19,65.1,19c-1.3,0-2.5-0.2-3.6-0.7s-2.1-1.1-2.9-1.9c-0.8-0.8-1.5-1.7-2-2.8s-0.7-2.2-0.7-3.5
				c0-1.2,0.2-2.4,0.7-3.5s1.1-2.1,2-2.9c0.8-0.8,1.8-1.4,2.9-1.9s2.3-0.7,3.6-0.7c1.3,0,2.4,0.2,3.6,0.7s2.1,1.1,2.9,1.9
				s1.5,1.8,2,2.9C74,7.6,74.2,8.8,74.2,10z M58.8,10c0,0.9,0.2,1.7,0.5,2.4c0.3,0.8,0.8,1.4,1.3,2c0.6,0.6,1.2,1,2,1.3
				c0.8,0.3,1.6,0.5,2.4,0.5c0.9,0,1.7-0.2,2.4-0.5s1.4-0.8,2-1.3c0.6-0.6,1-1.2,1.3-2c0.3-0.8,0.5-1.6,0.5-2.4s-0.2-1.7-0.5-2.4
				c-0.3-0.8-0.8-1.4-1.3-2c-0.6-0.6-1.2-1-2-1.3s-1.6-0.5-2.4-0.5c-0.9,0-1.7,0.2-2.4,0.5c-0.8,0.3-1.4,0.8-2,1.3
				c-0.6,0.6-1,1.2-1.3,2C59,8.4,58.8,9.2,58.8,10z M86.3,6.9h1.4c0.4,0,0.7-0.1,1-0.4c0.3-0.3,0.4-0.7,0.4-1.1
				c0-0.4-0.1-0.8-0.4-1.1c-0.3-0.3-0.6-0.4-1-0.4h-1.4V6.9z M83.6,19V1.2h4.1c1.1,0,2.1,0.4,2.9,1.2c0.8,0.8,1.2,1.8,1.2,2.9
				c0,1.1-0.4,2.1-1.1,2.9c0.8,0.3,1.6,0.7,2.2,1.4c1.1,1.1,1.6,2.4,1.6,3.9s-0.5,2.8-1.6,3.9C91.8,18.4,90.5,19,89,19H83.6z
				 M86.3,10.2v6H89c0.8,0,1.4-0.3,2-0.9c0.6-0.6,0.8-1.3,0.8-2.1c0-0.8-0.3-1.5-0.8-2.1c-0.6-0.6-1.2-0.9-2-0.9H86.3z M102.2,1
				l4.9,18h-2.8l-0.8-2.9h-4.3L98.4,19h-2.8l4.9-18H102.2z M100,13.3h2.8l-1.4-5.8L100,13.3z M112.9,19c-0.8,0-1.5-0.1-2-0.3
				c-0.6-0.2-1.2-0.5-1.9-1v-3.3c0.4,0.4,0.7,0.7,1,0.9c0.2,0.2,0.5,0.3,0.8,0.5c0.3,0.2,0.7,0.3,1.1,0.4s0.8,0.2,1.2,0.2
				c0.8,0,1.5-0.3,2-0.8c0.5-0.6,0.8-1.2,0.8-2c0-0.6-0.2-1.1-0.7-1.5s-1.1-0.8-2.1-1.3c-0.6-0.3-1.1-0.6-1.5-0.8
				c-0.4-0.2-0.8-0.6-1.2-0.9c-0.4-0.4-0.7-0.8-0.9-1.3c-0.2-0.5-0.4-1.1-0.4-1.8c0-0.7,0.2-1.3,0.5-1.9s0.7-1.1,1.2-1.5
				c0.5-0.4,1.1-0.8,1.7-1c0.6-0.2,1.3-0.4,2-0.4c0.5,0,1,0.1,1.5,0.2s0.9,0.4,1.5,0.7v2.8c-0.3-0.2-0.6-0.4-0.7-0.4
				s-0.3-0.1-0.5-0.3c-0.2-0.1-0.5-0.2-0.8-0.3c-0.3-0.1-0.6-0.1-1-0.1c-0.8,0-1.4,0.2-1.9,0.7s-0.8,1-0.8,1.6
				c0,0.6,0.2,1.1,0.7,1.4c0.4,0.4,1.1,0.7,2,1.2c0.6,0.3,1.2,0.6,1.6,0.8c0.4,0.2,0.8,0.5,1.2,0.9c0.4,0.4,0.7,0.8,1,1.4
				c0.2,0.6,0.4,1.2,0.4,2c0,0.7-0.1,1.4-0.4,2c-0.3,0.6-0.7,1.2-1.2,1.7c-0.5,0.5-1.1,0.9-1.8,1.2C114.4,18.9,113.7,19,112.9,19z
				 M120.5,1.2h8.2v2.7h-5.5v4.8h5.5v2.7h-5.5v4.8h5.5V19h-8.2V1.2z"/>
		</g>
	</g>
</g>
</svg>
